<svg width="327" height="327" viewBox="0 0 327 327" fill="none" xmlns="http://www.w3.org/2000/svg">
<g clip-path="url(#clip0)">
<path d="M248.568 198.208V232.594C248.568 233.457 248.536 234.32 248.466 235.171C247.151 252.043 233.043 265.326 215.834 265.326H111.124C93.9047 265.326 79.7891 252.028 78.4868 235.146C78.4244 234.3 78.392 233.45 78.392 232.594V198.208H248.568Z" fill="#FF5656"/>
<path d="M248.568 198.208V232.594C248.568 233.457 248.536 234.32 248.466 235.171C241.356 233.063 234.667 229.665 228.622 225.055C226.19 228.295 223.378 231.284 220.202 233.971C208.474 243.903 192.353 249.369 174.802 249.369H152.159C134.608 249.369 118.479 243.903 106.755 233.976C103.575 231.284 100.763 228.288 98.323 225.042C92.4452 229.525 85.7392 232.981 78.4868 235.146C78.4244 234.3 78.392 233.45 78.392 232.594V198.208H248.568Z" fill="#F72D2D"/>
<path d="M319.286 187.191C317.674 194.675 314.561 201.521 310.307 207.439C307.448 211.413 304.078 214.975 300.293 218.032C290.883 225.626 278.945 230.097 266.144 230.097C253.558 230.097 241.969 225.815 232.756 218.633C219.988 208.684 211.777 193.158 211.777 175.727V175.545L212.216 47.5935C212.286 27.4654 236.885 17.7506 250.689 32.3851L273.219 56.2855L286.846 70.7454C295.418 79.8315 302.516 89.9854 308.054 100.858C321.457 127.151 325.668 157.605 319.286 187.191Z" fill="#A46244"/>
<path d="M276.817 80.1109V99.543C276.817 109.023 275.008 118.279 271.433 127.056C267.865 135.833 262.701 143.724 256.08 150.512C251.063 155.661 247.086 161.624 244.275 168.235C241.213 175.435 239.664 183.049 239.664 190.853C239.664 200.95 237.277 210.397 232.756 218.633C219.985 208.684 211.777 193.158 211.777 175.727V175.545L212.214 47.5935C212.284 27.4654 236.882 17.7506 250.689 32.3851L273.217 56.2854C275.554 63.8173 276.817 71.8256 276.817 80.1109Z" fill="#8C482C"/>
<path d="M319.286 187.186C317.672 194.673 314.561 201.518 310.307 207.436C288.43 199.39 272.823 178.372 272.823 153.703C272.823 129.892 287.365 109.477 308.052 100.853C321.456 127.156 325.668 157.61 319.286 187.186Z" fill="#235872"/>
<path d="M115.18 175.54V175.732C115.18 205.74 90.8485 230.092 60.8135 230.092C48.0126 230.092 36.0749 225.621 26.6645 218.027C17.2541 210.427 10.3709 199.702 7.67151 187.186C5.45113 176.9 4.51557 166.499 4.80248 156.213C5.67316 124.703 18.01 94.1916 40.114 70.7429L66.5166 42.7386L76.2689 32.3901C90.0751 17.7531 114.674 27.4679 114.744 47.591L115.18 175.54Z" fill="#A46244"/>
<path d="M84.0352 88.496C84.0352 126.355 53.3465 157.043 15.4878 157.043C11.8553 157.043 8.28774 156.757 4.80249 156.213C5.67318 124.703 18.01 94.1916 40.1141 70.7429L66.5166 42.7386C77.4115 54.8734 84.0352 70.915 84.0352 88.496Z" fill="#235872"/>
<path d="M269.198 80.1084V99.5405C269.198 108.068 267.534 116.43 264.378 124.184C261.222 131.943 256.574 139.093 250.624 145.196C244.916 151.051 240.408 157.869 237.264 165.254C233.854 173.28 232.045 181.974 232.045 190.858C232.045 222.472 206.416 241.752 174.802 241.752H152.156C120.542 241.752 94.9126 222.472 94.9126 190.858C94.9126 182.451 93.2935 174.215 90.2274 166.549C90.1875 166.436 90.1376 166.322 90.0927 166.207C86.9292 158.453 82.2889 151.303 76.3338 145.196C64.426 132.983 57.7599 116.603 57.7599 99.5405V80.1084C57.7599 39.922 90.3371 7.34472 130.521 7.34472H196.434C236.62 7.34472 269.198 39.922 269.198 80.1084Z" fill="#FFF0D0"/>
<path d="M269.198 80.1109V99.5355C269.198 108.07 267.534 116.433 264.378 124.184C261.222 131.946 256.574 139.096 250.624 145.198C244.916 151.051 240.408 157.872 237.264 165.249C233.854 173.282 232.045 181.977 232.045 190.858C232.045 206.665 225.638 219.389 215.282 228.158C204.919 236.927 190.606 241.747 174.802 241.747H154.182C169.994 241.747 184.299 236.927 194.663 228.158C205.021 219.389 211.428 206.663 211.428 190.858C211.428 181.977 213.237 173.282 216.647 165.249C219.79 157.872 224.299 151.051 230.007 145.198C235.957 139.093 240.605 131.946 243.761 124.184C246.917 116.433 248.581 108.07 248.581 99.5355V80.1109C248.581 39.9245 216.006 7.34971 175.817 7.34971H196.434C236.623 7.34971 269.198 39.9245 269.198 80.1109Z" fill="#EAD2C1"/>
<path d="M142.86 7.34472V80.2556C142.86 110.009 128.238 137.791 103.886 154.89C99.0914 158.263 94.4062 162.135 90.2274 166.549C90.1875 166.434 90.1376 166.322 90.0927 166.207C86.9317 158.453 82.2889 151.303 76.3338 145.196C64.4285 132.983 57.7599 116.6 57.7599 99.538V80.1084C57.7599 39.9195 90.3347 7.34472 130.524 7.34472H142.86Z" fill="#C87D5B"/>
<path d="M269.198 80.1109V99.5355C269.198 108.07 267.534 116.433 264.378 124.184C261.222 131.946 256.574 139.096 250.624 145.198C244.916 151.051 240.408 157.872 237.264 165.249C233.41 161.369 229.181 157.922 224.862 154.893C224.261 154.474 223.67 154.042 223.079 153.603C199.8 136.414 185.888 109.27 185.888 80.2581V7.34971H196.434C236.623 7.34971 269.198 39.9245 269.198 80.1109Z" fill="#C87D5B"/>
<path d="M269.198 80.1109V99.5355C269.198 108.07 267.534 116.433 264.378 124.184C261.222 131.946 256.574 139.096 250.624 145.198C244.916 151.051 240.408 157.872 237.264 165.249C233.41 161.369 229.181 157.922 224.862 154.893C224.261 154.474 223.67 154.042 223.079 153.603C225.137 150.632 227.455 147.82 230.007 145.198C235.957 139.093 240.605 131.946 243.761 124.184C246.917 116.433 248.581 108.07 248.581 99.5355V80.1109C248.581 43.3399 221.307 12.9431 185.888 8.04576C182.598 7.58173 179.232 7.34721 175.817 7.34721H196.434C236.623 7.34971 269.198 39.9245 269.198 80.1109Z" fill="#A46244"/>
<path d="M164.805 191.182H162.153C148.703 191.182 137.801 180.28 137.801 166.831C137.801 159.149 144.028 152.919 151.712 152.919H175.246C182.927 152.919 189.157 159.149 189.157 166.831C189.157 180.28 178.254 191.182 164.805 191.182Z" fill="#235872"/>
<path d="M231.476 81.8847C231.476 89.9904 224.905 96.5592 216.799 96.5592C208.694 96.5592 202.122 89.9904 202.122 81.8847C202.122 73.7791 208.694 67.2077 216.799 67.2077C224.905 67.2077 231.476 73.7791 231.476 81.8847Z" fill="#235872"/>
<path d="M124.835 81.8847C124.835 89.9904 118.264 96.5592 110.158 96.5592C102.053 96.5592 95.4814 89.9904 95.4814 81.8847C95.4814 73.7791 102.053 67.2077 110.158 67.2077C118.264 67.2077 124.835 73.7791 124.835 81.8847Z" fill="#235872"/>
<path d="M196.801 288.231C196.801 304.834 184.179 318.488 168.006 320.119C165.843 320.336 163.657 320.336 161.494 320.119C145.32 318.488 132.697 304.834 132.697 288.231C132.697 270.527 147.047 256.177 164.75 256.177C182.451 256.177 196.801 270.53 196.801 288.231Z" fill="#FFDF4A"/>
<path d="M196.803 288.228C196.803 304.834 184.18 318.488 168.006 320.119C166.935 320.227 165.85 320.282 164.75 320.282C163.65 320.282 162.562 320.227 161.494 320.119C160.441 320.015 159.404 319.857 158.381 319.65C173.033 316.699 184.065 303.753 184.065 288.228C184.065 272.71 173.033 259.765 158.381 256.813C160.441 256.397 162.569 256.18 164.75 256.18C182.451 256.18 196.803 270.53 196.803 288.228Z" fill="#FFBD48"/>
<path d="M194.463 295.678H135.037C131.294 295.678 128.258 292.641 128.258 288.897C128.258 285.155 131.292 282.118 135.037 282.118H194.463C198.205 282.118 201.242 285.155 201.242 288.897C201.242 292.641 198.205 295.678 194.463 295.678Z" fill="#FFF3C1"/>
<path d="M290.329 67.4597L259.396 34.6454C259.223 34.4633 259.039 34.3037 258.847 34.154C244.704 15.0063 221.983 2.55468 196.434 2.55468H130.524C104.994 2.55468 82.3113 14.9564 68.1707 34.0467C68.036 34.159 67.9063 34.2812 67.7815 34.4109L36.6288 67.4597C31.7614 72.6215 27.2533 78.2473 23.2267 84.175C21.7398 86.3629 22.3086 89.3442 24.4965 90.8286C25.3223 91.39 26.2579 91.6569 27.1834 91.6569C28.7177 91.6569 30.2246 90.9234 31.1527 89.5588C34.8924 84.0502 39.0812 78.8261 43.6018 74.031L55.1677 61.7616C53.7332 67.6468 52.9698 73.7891 52.9698 80.1084V99.538C52.9698 111.323 55.8738 122.69 61.3299 132.804C49.3399 145.201 32.8142 152.253 15.4902 152.253C13.6067 152.253 11.7181 152.159 9.8395 151.994C10.8075 136.746 14.5297 121.674 20.914 107.733C22.0167 105.328 20.9589 102.487 18.5539 101.384C16.1489 100.284 13.3048 101.339 12.2046 103.744C0.17709 130.002 -3.0961 159.995 2.98625 188.196C5.82784 201.371 13.1676 213.289 23.6533 221.754C34.139 230.221 47.3365 234.884 60.8135 234.884C65.1794 234.884 69.468 234.413 73.6244 233.502C74.1084 253.772 90.7363 270.116 111.121 270.116H132.664C131.11 272.865 129.895 275.841 129.082 278.997C125.724 281.026 123.466 284.698 123.466 288.899C123.466 293.288 125.923 297.112 129.536 299.073C133.854 313.141 146.223 323.395 161.015 324.887C162.253 325.012 163.5 325.074 164.747 325.074C165.995 325.074 167.245 325.012 168.487 324.887C183.274 323.395 195.643 313.141 199.962 299.076C203.574 297.115 206.032 293.288 206.032 288.899C206.032 284.7 203.774 281.026 200.416 278.997C199.602 275.844 198.387 272.865 196.831 270.118H215.836C236.221 270.118 252.849 253.775 253.336 233.502C257.49 234.413 261.778 234.884 266.144 234.884C269.51 234.884 272.902 234.592 276.228 234.018C278.835 233.569 280.584 231.092 280.135 228.485C279.686 225.875 277.211 224.126 274.599 224.578C271.812 225.059 268.966 225.301 266.144 225.301C253.628 225.301 241.877 220.716 232.729 212.338C235.443 205.807 236.835 198.595 236.835 190.858C236.835 182.668 238.462 174.684 241.672 167.13C244.624 160.194 248.79 153.937 254.054 148.541C260.416 142.015 265.383 134.428 268.813 125.991C272.072 117.99 273.806 109.54 273.97 100.88C274.02 98.2357 271.917 96.0503 269.273 96.0004C266.616 95.943 264.443 98.0536 264.393 100.698C264.248 108.178 262.751 115.47 259.939 122.378C256.976 129.665 252.687 136.217 247.193 141.853C242.67 146.49 238.848 151.68 235.78 157.333C233.25 155.142 230.523 153.014 227.617 150.971C204.485 134.73 190.678 108.292 190.678 80.2556V12.1348H196.434C233.821 12.1348 264.313 42.5515 264.405 79.9388C264.41 82.5808 266.553 84.7163 269.195 84.7163H269.208C271.852 84.7113 273.993 82.5608 273.985 79.9138C273.97 73.6618 273.204 67.582 271.782 61.7541L283.356 74.031C290.451 81.5579 296.501 89.8407 301.446 98.6623C280.996 109.28 268.033 130.369 268.033 153.703C268.033 177.356 281.697 198.964 302.606 209.32C299.789 212.363 296.573 215.078 292.996 217.388C290.773 218.822 290.132 221.786 291.566 224.009C292.482 225.431 294.024 226.205 295.595 226.205C296.486 226.205 297.387 225.955 298.19 225.439C311.485 216.862 320.641 203.637 323.971 188.196C333.317 144.856 320.741 99.7201 290.329 67.4597ZM130.524 12.1348H138.07V80.2556C138.07 108.292 124.262 134.73 101.13 150.971C97.7517 153.346 94.6132 155.833 91.7467 158.401C88.5858 152.333 84.5741 146.785 79.7641 141.85C68.6622 130.466 62.5499 115.437 62.5499 99.538V80.1084C62.5499 42.6288 93.0415 12.1348 130.524 12.1348ZM12.3518 186.175C10.6079 178.09 9.6948 169.844 9.59251 161.591C11.5559 161.749 13.5243 161.833 15.4902 161.833C34.6429 161.833 52.9499 154.342 66.589 141.099C68.505 143.699 70.6106 146.188 72.9034 148.539C78.392 154.167 82.683 160.721 85.6568 168.016L85.7092 168.143C85.7317 168.208 85.7541 168.268 85.7791 168.33C88.6606 175.53 90.1226 183.112 90.1226 190.858C90.1226 198.595 91.5147 205.807 94.229 212.338C85.078 220.716 73.3275 225.301 60.8135 225.301C37.6217 225.301 17.2416 208.846 12.3518 186.175ZM189.748 277.328H139.752C144.003 267.579 153.74 260.97 164.75 260.97C175.759 260.97 185.497 267.579 189.748 277.328ZM135.037 290.885C133.941 290.885 133.048 289.994 133.048 288.897C133.048 287.802 133.939 286.908 135.037 286.908H194.461C195.558 286.908 196.449 287.802 196.449 288.897C196.449 289.994 195.558 290.885 194.461 290.885H135.037ZM167.529 315.354C165.685 315.539 163.817 315.539 161.976 315.354C152.573 314.404 144.492 308.668 140.378 300.468H159.96V303.062C159.96 305.707 162.103 307.852 164.75 307.852C167.397 307.852 169.54 305.707 169.54 303.062V300.468H189.122C185.008 308.668 176.927 314.404 167.529 315.354ZM243.778 230.531V232.594C243.778 248.002 231.244 260.536 215.836 260.536H189.027C182.488 254.81 173.948 251.387 164.75 251.387C155.549 251.387 147.012 254.81 140.473 260.536H111.124C95.7159 260.536 83.182 248.002 83.182 232.594V230.528C88.8377 228.223 94.1267 225.03 98.8818 221.015C101.536 224.975 104.775 228.592 108.584 231.815C119.798 241.311 135.274 246.542 152.156 246.542H174.801C191.684 246.542 207.159 241.311 218.373 231.815C222.183 228.592 225.421 224.975 228.076 221.015C232.831 225.032 238.12 228.223 243.778 230.531ZM222.108 158.81C225.591 161.257 228.779 163.829 231.628 166.474C228.724 174.298 227.252 182.483 227.252 190.856C227.252 218.002 205.685 236.96 174.801 236.96H152.156C121.273 236.96 99.7026 218.002 99.7026 190.856C99.7026 182.945 98.3854 175.186 95.7858 167.744C98.9667 164.648 102.604 161.649 106.638 158.812C132.32 140.777 147.65 111.411 147.65 80.2556V12.1348H181.096V80.2556C181.096 111.411 196.429 140.777 222.108 158.81ZM314.606 186.175C313.418 191.679 311.34 196.841 308.496 201.513C289.89 193.101 277.613 174.32 277.613 153.703C277.613 134.001 288.545 116.191 305.797 107.2C317.091 131.551 320.414 159.234 314.606 186.175Z" fill="black"/>
<path d="M151.712 148.129C141.398 148.129 133.008 156.519 133.008 166.831C133.008 181.727 144.248 194.041 158.688 195.76V216.877C152.286 215.272 146.994 210.52 144.829 204.051C143.988 201.543 141.274 200.191 138.764 201.029C136.257 201.87 134.904 204.585 135.745 207.094C139.744 219.032 150.889 227.05 163.478 227.05C176.069 227.05 187.213 219.032 191.212 207.094C192.053 204.585 190.701 201.87 188.191 201.029C185.681 200.189 182.967 201.541 182.126 204.051C179.961 210.52 174.672 215.27 168.27 216.874V195.76C182.71 194.041 193.947 181.727 193.947 166.831C193.947 156.517 185.557 148.129 175.246 148.129H151.712ZM184.367 166.831C184.367 177.618 175.592 186.392 164.805 186.392H162.153C151.365 186.392 142.591 177.618 142.591 166.831C142.591 161.801 146.682 157.71 151.712 157.71H175.246C180.275 157.71 184.367 161.801 184.367 166.831Z" fill="black"/>
<path d="M197.332 81.8847C197.332 92.6174 206.066 101.352 216.799 101.352C227.534 101.352 236.266 92.6174 236.266 81.8847C236.266 71.1495 227.534 62.4177 216.799 62.4177C206.066 62.4177 197.332 71.152 197.332 81.8847ZM226.684 81.8847C226.684 87.3359 222.25 91.7692 216.799 91.7692C211.348 91.7692 206.912 87.3359 206.912 81.8847C206.912 76.4336 211.348 72.0003 216.799 72.0003C222.25 72.0003 226.684 76.4336 226.684 81.8847Z" fill="black"/>
<path d="M110.158 101.352C120.894 101.352 129.625 92.6174 129.625 81.8847C129.625 71.1495 120.894 62.4177 110.158 62.4177C99.4232 62.4177 90.6914 71.1495 90.6914 81.8847C90.6914 92.6174 99.4232 101.352 110.158 101.352ZM110.158 72.0003C115.61 72.0003 120.043 76.4336 120.043 81.8847C120.043 87.3359 115.61 91.7692 110.158 91.7692C104.707 91.7692 100.271 87.3359 100.271 81.8847C100.271 76.4336 104.707 72.0003 110.158 72.0003Z" fill="black"/>
</g>
<defs>
<clipPath id="clip0">
<rect width="327" height="327" fill="white"/>
</clipPath>
</defs>
</svg>
